<?xml version="1.0" encoding="UTF-8" standalone="no"?>
<svg xmlns="http://www.w3.org/2000/svg" width="1600" height="700" viewBox="0 0 1600 700" role="img" aria-label="Goodwill Credit — Student Recognition">
  <defs>
    <linearGradient id="bggrad5" x1="0" x2="1" y1="0" y2="1">
      <stop offset="0%" stop-color="#b8f397" />
      <stop offset="100%" stop-color="#5bb04a" />
    </linearGradient>

    <!-- Subtle hatch pattern -->
    <pattern id="guill5" width="40" height="40" patternUnits="userSpaceOnUse" patternTransform="rotate(20)">
      <path d="M0 0 L0 40" stroke="rgba(255,255,255,0.18)" stroke-width="1"/>
      <path d="M20 0 L20 40" stroke="rgba(255,255,255,0.12)" stroke-width="1"/>
    </pattern>

    <!-- Simple decorative maple leaf shape -->
    <g id="leaf5" transform="scale(1)">
      <path d="M0,-28 L7,-10 L25,-7 L10,5 L14,22 L0,12 L-14,22 L-10,5 L-25,-7 L-7,-10 Z" fill="none" stroke="currentColor" stroke-width="2" />
    </g>

    <!-- Filigree rosette (parametric circles) -->
    <g id="rosette">
      <g opacity="0.6">
        <circle cx="0" cy="0" r="26" fill="none" stroke="rgba(255,255,255,0.33)" stroke-width="1"/><circle cx="0" cy="0" r="32" fill="none" stroke="rgba(255,255,255,0.31)" stroke-width="1"/><circle cx="0" cy="0" r="38" fill="none" stroke="rgba(255,255,255,0.29)" stroke-width="1"/><circle cx="0" cy="0" r="44" fill="none" stroke="rgba(255,255,255,0.27)" stroke-width="1"/><circle cx="0" cy="0" r="50" fill="none" stroke="rgba(255,255,255,0.25)" stroke-width="1"/><circle cx="0" cy="0" r="56" fill="none" stroke="rgba(255,255,255,0.23)" stroke-width="1"/><circle cx="0" cy="0" r="62" fill="none" stroke="rgba(255,255,255,0.21)" stroke-width="1"/><circle cx="0" cy="0" r="68" fill="none" stroke="rgba(255,255,255,0.19)" stroke-width="1"/><circle cx="0" cy="0" r="74" fill="none" stroke="rgba(255,255,255,0.17)" stroke-width="1"/><circle cx="0" cy="0" r="80" fill="none" stroke="rgba(255,255,255,0.15)" stroke-width="1"/><circle cx="0" cy="0" r="86" fill="none" stroke="rgba(255,255,255,0.13)" stroke-width="1"/><circle cx="0" cy="0" r="92" fill="none" stroke="rgba(255,255,255,0.11)" stroke-width="1"/><circle cx="0" cy="0" r="98" fill="none" stroke="rgba(255,255,255,0.09)" stroke-width="1"/><circle cx="0" cy="0" r="104" fill="none" stroke="rgba(255,255,255,0.07)" stroke-width="1"/><circle cx="0" cy="0" r="110" fill="none" stroke="rgba(255,255,255,0.05)" stroke-width="1"/><circle cx="0" cy="0" r="116" fill="none" stroke="rgba(255,255,255,0.03)" stroke-width="1"/><circle cx="0" cy="0" r="122" fill="none" stroke="rgba(255,255,255,0.01)" stroke-width="1"/><circle cx="0" cy="0" r="128" fill="none" stroke="rgba(255,255,255,-0.01)" stroke-width="1"/><circle cx="0" cy="0" r="134" fill="none" stroke="rgba(255,255,255,-0.03)" stroke-width="1"/><circle cx="0" cy="0" r="140" fill="none" stroke="rgba(255,255,255,-0.05)" stroke-width="1"/><circle cx="0" cy="0" r="146" fill="none" stroke="rgba(255,255,255,-0.07)" stroke-width="1"/><circle cx="0" cy="0" r="152" fill="none" stroke="rgba(255,255,255,-0.09)" stroke-width="1"/><circle cx="0" cy="0" r="158" fill="none" stroke="rgba(255,255,255,-0.11)" stroke-width="1"/><circle cx="0" cy="0" r="164" fill="none" stroke="rgba(255,255,255,-0.13)" stroke-width="1"/>
      </g>
      <g opacity="0.35">
        <circle cx="0" cy="0" r="24" fill="none" stroke="rgba(0,0,0,0.27)" stroke-width="0.6"/><circle cx="0" cy="0" r="30" fill="none" stroke="rgba(0,0,0,0.26)" stroke-width="0.6"/><circle cx="0" cy="0" r="36" fill="none" stroke="rgba(0,0,0,0.25)" stroke-width="0.6"/><circle cx="0" cy="0" r="42" fill="none" stroke="rgba(0,0,0,0.24)" stroke-width="0.6"/><circle cx="0" cy="0" r="48" fill="none" stroke="rgba(0,0,0,0.23)" stroke-width="0.6"/><circle cx="0" cy="0" r="54" fill="none" stroke="rgba(0,0,0,0.22)" stroke-width="0.6"/><circle cx="0" cy="0" r="60" fill="none" stroke="rgba(0,0,0,0.21)" stroke-width="0.6"/><circle cx="0" cy="0" r="66" fill="none" stroke="rgba(0,0,0,0.20)" stroke-width="0.6"/><circle cx="0" cy="0" r="72" fill="none" stroke="rgba(0,0,0,0.19)" stroke-width="0.6"/><circle cx="0" cy="0" r="78" fill="none" stroke="rgba(0,0,0,0.18)" stroke-width="0.6"/><circle cx="0" cy="0" r="84" fill="none" stroke="rgba(0,0,0,0.17)" stroke-width="0.6"/><circle cx="0" cy="0" r="90" fill="none" stroke="rgba(0,0,0,0.16)" stroke-width="0.6"/><circle cx="0" cy="0" r="96" fill="none" stroke="rgba(0,0,0,0.15)" stroke-width="0.6"/><circle cx="0" cy="0" r="102" fill="none" stroke="rgba(0,0,0,0.14)" stroke-width="0.6"/><circle cx="0" cy="0" r="108" fill="none" stroke="rgba(0,0,0,0.13)" stroke-width="0.6"/><circle cx="0" cy="0" r="114" fill="none" stroke="rgba(0,0,0,0.12)" stroke-width="0.6"/><circle cx="0" cy="0" r="120" fill="none" stroke="rgba(0,0,0,0.11)" stroke-width="0.6"/><circle cx="0" cy="0" r="126" fill="none" stroke="rgba(0,0,0,0.10)" stroke-width="0.6"/><circle cx="0" cy="0" r="132" fill="none" stroke="rgba(0,0,0,0.09)" stroke-width="0.6"/><circle cx="0" cy="0" r="138" fill="none" stroke="rgba(0,0,0,0.08)" stroke-width="0.6"/><circle cx="0" cy="0" r="144" fill="none" stroke="rgba(0,0,0,0.07)" stroke-width="0.6"/><circle cx="0" cy="0" r="150" fill="none" stroke="rgba(0,0,0,0.06)" stroke-width="0.6"/><circle cx="0" cy="0" r="156" fill="none" stroke="rgba(0,0,0,0.05)" stroke-width="0.6"/><circle cx="0" cy="0" r="162" fill="none" stroke="rgba(0,0,0,0.04)" stroke-width="0.6"/>
      </g>
    </g>
  </defs>

  <!-- Background -->
  <rect x="0" y="0" width="1600" height="700" fill="url(#bggrad5)"/>
  <rect x="32" y="32" rx="28" ry="28" width="1536" height="636" fill="url(#guill5)" stroke="rgba(0,0,0,0.15)" stroke-width="2"/>

  <!-- Corner denominations -->
  <g font-family="ui-sans-serif, system-ui, -apple-system, Segoe UI, Roboto, Arial" font-weight="800" fill="rgba(0,0,0,0.65)">
    <text x="60" y="110" font-size="90">5</text>
    <text x="1540" y="660" font-size="90" text-anchor="end">5</text>
  </g>

  <!-- Centerpiece rosette -->
  <g transform="translate(800,350)">
    <use href="#rosette" />
    <circle cx="0" cy="0" r="130" fill="rgba(255,255,255,0.55)" stroke="rgba(0,0,0,0.15)" stroke-width="1"/>
    <text x="0" y="-10" text-anchor="middle" font-family="ui-serif, Georgia, Cambria, Times New Roman, Times" font-weight="700" font-size="62" fill="rgba(0,0,0,0.82)">GOODWILL CREDIT</text>
    <text x="0" y="70" text-anchor="middle" font-family="ui-sans-serif, Segoe UI, Roboto, Arial" font-weight="900" font-size="150" fill="rgba(0,0,0,0.8)">5</text>
  </g>

  <!-- Title ribbon -->
  <g transform="translate(0,0)">
    <rect x="180" y="80" rx="16" ry="16" width="1240" height="90" fill="rgba(255,255,255,0.55)" stroke="rgba(0,0,0,0.08)"/>
    <text x="800" y="145" text-anchor="middle" font-family="ui-serif, Georgia, Cambria, Times New Roman, Times" font-size="64" font-weight="700" fill="rgba(0,0,0,0.85)">Goodwill Credit — Student Recognition</text>
  </g>

  <!-- Maple leaf band -->
  <g transform="translate(100,540)" opacity="0.55" stroke="rgba(0,0,0,0.45)">
    <g transform="translate(0,0)"><use href="#leaf5"/></g><g transform="translate(90,0)"><use href="#leaf5"/></g><g transform="translate(180,0)"><use href="#leaf5"/></g><g transform="translate(270,0)"><use href="#leaf5"/></g><g transform="translate(360,0)"><use href="#leaf5"/></g><g transform="translate(450,0)"><use href="#leaf5"/></g><g transform="translate(540,0)"><use href="#leaf5"/></g><g transform="translate(630,0)"><use href="#leaf5"/></g><g transform="translate(720,0)"><use href="#leaf5"/></g><g transform="translate(810,0)"><use href="#leaf5"/></g><g transform="translate(900,0)"><use href="#leaf5"/></g><g transform="translate(990,0)"><use href="#leaf5"/></g>
  </g>

  <!-- Fine print and signature -->
  <g font-family="ui-sans-serif, Segoe UI, Roboto, Arial" fill="rgba(0,0,0,0.7)">
    <text x="80" y="510" font-size="26">Redeemable for bonus marks at instructor's discretion. Non-transferable.</text>
    <text x="80" y="550" font-size="24">Issued by: Instructor (NAIT)</text>
    <line x1="80" y1="600" x2="460" y2="600" stroke="rgba(0,0,0,0.45)" stroke-width="2"/>
    <text x="80" y="630" font-size="22">Signature</text>
    <line x1="520" y1="600" x2="800" y2="600" stroke="rgba(0,0,0,0.45)" stroke-width="2"/>
    <text x="520" y="630" font-size="22">Date</text>
  </g>

  <!-- Serial + QR placeholder -->
  <g>
    <text x="1520" y="540" text-anchor="end" font-family="ui-monospace, SFMono-Regular, Menlo, Consolas, monospace" font-size="28" fill="rgba(0,0,0,0.75)">Serial: GW-2025-05-0001</text>
    <rect x="1380" y="560" width="140" height="140" fill="none" stroke="rgba(0,0,0,0.4)" stroke-dasharray="6 6"/>
    <text x="1450" y="640" text-anchor="middle" font-size="18" fill="rgba(0,0,0,0.55)">QR here</text>
  </g>

  <!-- Security corners -->
  <g opacity="0.3">
    <circle cx="48" cy="48" r="18" fill="white" />
    <circle cx="1552" cy="652" r="18" fill="white" />
  </g>

  <!-- Border -->
  <rect x="16" y="16" rx="26" ry="26" width="1568" height="668" fill="none" stroke="rgba(0,0,0,0.35)" stroke-width="3"/>
</svg>